<svg width="185" height="63" viewBox="0 0 185 63" fill="none" xmlns="http://www.w3.org/2000/svg">
<path d="M75.3905 9.30634C77.1272 9.38529 79.1008 8.04324 79.4955 6.62226C79.7323 5.75388 79.6534 4.80655 79.2587 4.175C78.785 3.46451 77.9956 3.0698 76.8904 2.91191C75.2326 2.67508 73.6537 3.38557 72.8643 4.64867C72.2327 5.67493 72.2327 6.85909 72.9432 7.88535C73.5747 9.06951 74.601 9.30634 75.3905 9.30634Z" fill="white" stroke="#221E20" stroke-width="0.099401" stroke-miterlimit="4.8166"/>
<path d="M40.4184 43.2521C39.4711 43.2521 38.208 43.4889 37.1028 43.8836C32.603 45.6204 27.8664 46.5677 23.7613 46.4098C19.4194 46.252 12.1566 44.752 12.1566 36.0682C12.0776 22.0162 25.3402 7.96429 32.524 5.67492C32.9977 5.51703 33.3924 5.43809 33.7082 5.51703C34.8134 5.51703 35.2081 6.46436 35.6818 8.04323C36.2344 9.77999 36.8659 11.9115 39.7868 11.9904C40.3395 11.9904 41.0499 11.9115 41.7604 11.8325C43.0235 11.5957 44.3656 10.3326 44.9182 8.83267C45.3129 7.72745 45.7076 5.59597 43.5761 3.14872C41.9183 1.25407 39.0764 0.148866 35.6028 0.0699222C34.1818 -0.00902143 32.7609 0.148866 31.3399 0.46464C22.0245 2.28034 3.39382 14.2798 0.315021 34.963C-0.553359 41.0417 0.70974 46.173 4.10432 49.8044C7.41995 53.4358 12.6302 55.4884 18.6299 55.6462C24.7086 55.8041 30.9452 54.0674 35.8397 50.7517C40.5763 47.594 42.7078 45.3836 42.313 44.1205C42.0762 43.8047 41.6815 43.331 40.4184 43.2521Z" fill="white" stroke="#221E20" stroke-width="0.099401" stroke-miterlimit="4.8166"/>
<path d="M179.596 13.7269C178.096 13.7269 177.386 14.99 177.07 15.7795C176.281 15.069 174.623 13.8059 172.255 13.8848C167.992 13.9638 161.992 16.411 159.15 23.0423C156.94 28.2526 157.334 31.4103 157.413 32.1998C156.703 32.9102 154.887 34.2523 153.624 34.2523C153.545 34.2523 153.387 34.2523 153.308 34.1733C152.756 34.0155 152.124 32.5945 154.65 24.6212C156.229 19.6477 156.387 16.6479 155.203 15.1479C154.65 14.4374 153.782 14.0427 152.598 14.1217C149.203 14.2006 145.73 16.0163 143.361 18.8583C143.914 16.9636 143.914 15.7795 143.361 14.99C142.967 14.4374 142.256 14.2006 141.309 14.2006C139.177 14.2006 138.151 14.4374 136.572 16.0953C135.625 17.2005 134.914 19.9635 133.888 23.7528C133.335 26.0422 132.625 28.6473 131.757 31.3314C130.257 32.9892 128.836 33.9365 127.809 33.9365C127.099 33.9365 126.625 33.3839 126.309 32.4366C125.915 31.0945 126.625 27.4631 128.362 22.095C128.599 21.3055 128.915 20.595 129.151 19.8845C130.02 17.4373 130.651 15.6216 130.02 14.7532C129.783 14.3585 129.309 14.2006 128.678 14.2796C125.599 14.4374 123.073 16.0163 122.046 18.2267C121.968 18.3057 118.494 26.8316 118.415 33.305C117.389 34.0155 116.126 35.0417 115.731 34.3312C114.152 31.5682 112.021 27.3052 110.679 22.8844C111.468 22.095 112.652 21.1476 113.915 19.9635C119.757 14.8322 124.415 10.806 123.941 8.99032C123.546 7.72723 121.968 7.25357 121.573 7.25357C119.836 7.17462 118.731 8.83244 116.915 10.4903C116.284 11.0429 115.652 11.5955 114.942 12.1481C114.547 12.4638 114.152 12.7796 113.599 13.2533C112.021 14.5953 109.889 16.3321 108.231 17.3583C108.547 16.2531 108.784 15.2269 109.021 14.3585C109.731 11.5165 110.284 9.22715 111.389 5.5168C111.547 4.9642 111.705 4.49054 111.863 4.09582C112.336 2.51695 112.652 1.64857 112.178 1.09596C111.863 0.701242 111.31 0.6223 110.836 0.6223C107.837 0.543356 106.179 1.41173 105.153 3.54321C103.653 6.93779 99.5475 21.3055 98.1265 28.8052C97.9686 29.5157 97.8897 30.1472 97.7318 30.6998C97.7318 30.6998 97.7318 30.6998 97.7318 30.7788H97.6529C94.8109 31.805 90.3111 34.8049 87.3113 32.3576C86.0482 31.3314 85.2587 29.4367 85.2587 27.3053C85.2587 24.1475 86.7586 20.9108 89.127 18.9372C90.3111 17.9899 91.2584 17.5162 91.9689 17.5162C92.6794 17.5162 93.1531 17.9899 93.6267 19.0162C93.9425 19.7267 94.5741 20.1214 95.2846 20.1214C96.3108 20.1214 97.495 19.4898 97.8108 18.1478C98.1265 16.9636 97.9686 15.9374 97.3371 15.1479C96.3108 13.8848 94.1004 13.4112 91.1006 13.648C85.2587 14.2006 78.4696 18.7793 76.8907 29.9893C75.4697 32.1998 74.4434 32.3576 74.0487 32.3576C73.4172 32.3576 72.9435 31.7261 72.7067 30.6209C72.3909 28.9631 73.2593 25.7264 75.6276 19.253C76.496 16.8057 76.6539 15.2269 76.0223 14.4374C75.4697 13.7269 74.5224 13.5691 73.0225 14.0427C68.3648 15.3848 67.4964 18.6215 65.1281 29.5157C63.6282 31.4893 61.9703 32.6734 61.2598 32.5945C61.1809 32.5945 61.102 32.5945 61.102 32.5155C61.023 32.4366 60.9441 32.1998 61.102 31.4893C61.5756 29.5157 62.1282 27.7 62.6019 26.0421C63.3124 23.5949 63.865 21.6213 64.0229 20.3582C64.0229 20.2003 64.1018 20.0424 64.1018 19.8845C64.3387 18.5425 64.6544 16.5689 63.4703 15.3848C62.6019 14.4374 61.102 14.1217 58.8915 14.5164C56.3653 14.99 54.7075 15.8584 53.7602 16.5689C54.3128 14.5164 54.9444 12.3849 56.1285 9.06927C56.4443 8.27983 56.6811 7.49039 56.9969 6.70096C58.0232 4.01687 58.8126 1.96434 58.181 0.938075C57.9442 0.622301 57.6284 0.46441 57.2337 0.385466H57.1548C56.839 0.385466 56.4443 0.306524 56.0496 0.306524C52.1813 0.148637 49.3394 2.99061 47.5237 8.91138C44.6027 18.2267 43.4186 25.6474 42.3134 31.4103C41.9976 33.226 41.6818 34.647 41.445 35.6733C41.1292 37.0943 41.2871 38.1995 41.8397 38.91C42.3134 39.4626 43.0239 39.6994 43.8922 39.7784C44.9975 39.7784 46.1027 39.4626 46.4974 39.2257C48.471 38.4363 49.4972 33.9365 50.6025 29.121C51.234 26.4369 51.7866 23.9107 52.4971 22.4897C54.2339 21.4634 55.418 20.9898 56.0496 20.9898C56.2864 20.9898 56.4443 21.0687 56.5232 21.1476C57.1548 21.8581 56.6022 24.4633 55.9706 27.1474C54.3918 33.8576 54.2339 37.0153 55.497 38.4363C55.9706 39.0678 56.7601 39.3047 57.7074 39.2257C61.6546 38.9889 64.0229 36.4627 65.0491 35.0417C65.207 35.9101 65.5228 37.0943 66.4701 38.0416C67.3385 38.91 68.5227 39.3836 70.0226 39.4626C70.1805 39.4626 70.3384 39.4626 70.4173 39.4626C74.7592 39.3836 76.8907 36.2259 77.7591 34.8049C78.4696 36.3048 80.5221 39.3047 85.0219 39.4626C85.2587 39.4626 85.4955 39.4626 85.7324 39.4626C89.2848 39.3836 93.7057 37.6469 96.6266 35.8312V35.9101C96.4687 37.2521 96.5477 38.4363 97.0213 38.9889C97.416 39.4626 98.1265 39.6205 98.6791 39.5415C99.0738 39.5415 99.3896 39.5415 99.6265 39.5415C102.153 39.6205 103.021 39.3836 104.126 34.0944C104.6 31.7261 105.153 29.6736 105.547 28.5683C106.495 30.7788 108.863 36.1469 111.547 38.831C112.336 39.7783 113.836 40.0152 114.626 40.0152C116.126 40.0941 117.941 38.9889 119.204 37.8837C119.283 37.9626 119.362 38.1205 119.362 38.1995C120.073 39.3047 121.336 40.0941 122.599 40.1731C126.862 39.9362 129.467 38.1205 130.651 36.9364C130.651 37.6469 130.73 38.4363 131.204 38.9889C131.599 39.5415 132.309 39.7784 133.178 39.7784C133.414 39.7784 133.572 39.7784 133.809 39.7784C136.73 39.7784 138.072 39.5415 139.177 35.3575L139.335 34.7259C140.361 30.8577 141.624 25.9632 144.466 23.437C146.045 22.016 146.756 21.7792 147.072 21.7792C147.151 21.7792 147.229 21.7792 147.229 21.8581C147.387 22.016 147.545 22.5686 147.151 24.4633C146.835 25.6474 146.44 26.9895 146.045 28.2526C144.861 32.2787 143.598 36.5416 145.098 38.4363C145.651 39.1468 146.598 39.5415 147.94 39.5415C153.387 39.5415 157.255 37.1732 158.439 36.3838C159.071 37.3311 161.124 39.6205 165.387 39.5415C168.702 39.4626 170.597 38.1995 171.544 37.1732C171.307 39.3836 170.676 44.1202 169.728 49.0148C168.623 54.6987 166.334 57.6196 162.86 57.6196C162.781 57.6196 162.702 57.6196 162.623 57.6196C161.124 57.5407 160.097 57.067 159.466 56.0407C158.203 54.1461 158.676 50.5147 160.65 46.9622C161.755 44.9886 161.518 43.9624 161.124 43.4097C160.808 42.8571 160.176 42.6203 159.387 42.5414C157.65 42.4624 154.808 43.7255 152.598 46.6464C149.993 50.041 149.519 54.4619 151.335 57.7775C153.071 60.8563 156.545 62.672 161.124 62.8299C161.518 62.8299 161.992 62.8299 162.466 62.8299C175.491 62.4352 177.544 48.9358 179.123 38.0416C179.438 36.1469 179.675 34.4102 179.991 32.7524C180.386 30.5419 180.859 28.4894 181.175 26.5948C182.044 22.3318 182.596 19.1741 182.833 17.5162C182.991 16.3321 182.754 15.3058 182.044 14.5164C181.649 14.0427 180.702 13.7269 179.596 13.7269ZM173.676 28.8052C173.439 29.121 171.623 31.9629 168.623 31.884C168.15 31.884 167.597 31.805 167.123 31.6472C165.702 31.1735 164.992 29.4367 165.229 27.0684C165.544 23.516 167.992 19.3319 171.149 18.8583C171.386 18.7793 171.702 18.7793 171.939 18.7793C174.07 18.8583 175.333 20.595 175.57 20.9898L173.676 28.8052Z" fill="white" stroke="#221E20" stroke-width="0.099401" stroke-miterlimit="4.8166"/>
<path d="M128.362 9.30634C130.099 9.38529 132.072 8.12219 132.467 6.62226C132.704 5.75388 132.625 4.80655 132.151 4.175C131.677 3.46451 130.888 3.0698 129.783 2.91191C128.125 2.67508 126.546 3.38557 125.757 4.64867C125.125 5.67493 125.125 6.85909 125.757 7.88535C126.625 8.99057 127.651 9.30634 128.362 9.30634Z" fill="white" stroke="#221E20" stroke-width="0.099401" stroke-miterlimit="4.8166"/>
<path d="M181.886 6.3064C180.307 6.3064 178.965 7.5695 178.965 9.14837C178.965 10.7272 180.307 11.9903 181.886 11.9903C183.464 11.9903 184.806 10.7272 184.806 9.14837C184.806 7.5695 183.543 6.3064 181.886 6.3064ZM181.886 11.4377C180.622 11.4377 179.596 10.4115 179.596 9.14837C179.596 7.88527 180.622 6.85901 181.886 6.85901C183.149 6.85901 184.175 7.88527 184.175 9.14837C184.175 10.4115 183.228 11.4377 181.886 11.4377Z" fill="white"/>
<path d="M182.912 9.54308C182.912 9.46413 182.833 9.46413 182.754 9.38518C182.675 9.30624 182.596 9.30624 182.517 9.30624C182.596 9.30624 182.754 9.2273 182.833 9.2273C182.912 9.14836 183.07 9.06941 183.07 8.99047C183.149 8.91152 183.149 8.75364 183.149 8.59575C183.149 8.43786 183.149 8.27997 182.991 8.20103C182.912 8.12209 182.754 7.9642 182.675 7.9642C182.517 7.88526 182.359 7.88525 182.044 7.88525H180.623V10.5693H181.491V9.46413H181.57C181.649 9.46413 181.728 9.46413 181.807 9.54308C181.886 9.54308 181.886 9.62202 181.965 9.7799L182.438 10.5693H183.386L182.991 9.7799C182.991 9.70096 182.912 9.62202 182.912 9.54308ZM182.28 8.83258C182.28 8.91152 182.201 8.91152 182.122 8.91152C182.044 8.91152 181.965 8.91152 181.886 8.91152H181.491V8.35892H181.886C182.044 8.35892 182.122 8.35892 182.201 8.43786C182.28 8.51681 182.28 8.59575 182.28 8.67469C182.359 8.67469 182.359 8.75364 182.28 8.83258Z" fill="white"/>
<path d="M57.2336 3.78014C57.2336 3.78014 57.7073 1.64866 55.4179 1.41183C55.4179 1.41183 58.4178 1.01711 57.2336 3.78014ZM149.44 38.1996C147.308 37.9627 146.44 36.3049 146.44 36.3049C146.44 36.3049 147.861 37.3312 149.282 37.568C150.782 37.8049 153.387 36.9365 153.387 36.9365C153.387 36.9365 151.571 38.3575 149.44 38.1996ZM100.889 38.2785C97.8106 38.5943 98.4422 35.8313 98.4422 35.8313C99.3895 38.2785 100.732 38.2785 100.889 38.2785ZM43.8132 38.0417C42.8659 37.4891 42.708 36.6996 42.708 36.147C43.9711 38.8311 47.0499 37.8838 47.0499 37.8838C46.4183 38.5153 44.9184 38.5943 43.8132 38.0417ZM78.4695 6.22739C78.4695 6.22739 78.2326 4.41168 76.338 3.85908C76.338 3.85908 78.6273 3.78013 78.4695 6.22739ZM69.7857 38.1996C67.891 37.647 67.4963 35.5944 67.4963 35.5944C67.4963 35.5944 68.3647 37.3312 69.9435 37.568C71.5224 37.8049 73.7328 37.0154 73.7328 37.0154C73.7328 37.0154 71.7592 38.7522 69.7857 38.1996ZM140.124 15.6217C140.124 15.6217 142.019 15.7006 142.019 17.4374C142.019 17.5163 141.703 16.3322 140.124 15.6217ZM122.994 38.4364C121.02 38.3574 120.941 36.3049 120.941 36.3049C122.204 38.5153 124.099 38.3575 124.099 38.3575C123.625 38.5943 122.994 38.4364 122.994 38.4364ZM154.571 18.1479C154.571 18.1479 153.466 15.9375 151.255 15.5427C151.255 15.6217 154.334 14.9901 154.571 18.1479ZM128.993 17.4374C128.993 17.4374 128.757 15.6217 127.257 15.3848C127.257 15.3848 129.23 14.9901 128.993 17.4374ZM57.4704 37.4101C56.5231 36.8575 56.3652 36.0681 56.3652 35.5155C57.6283 38.1996 60.7071 37.2522 60.7071 37.2522C60.0756 37.8838 58.4967 37.9627 57.4704 37.4101ZM114.231 38.3575C112.494 38.1206 111.942 35.9891 111.942 35.9891C111.942 35.9891 113.126 37.4101 114.231 37.7259C115.336 38.0417 118.336 37.3312 118.336 37.3312C118.336 37.3312 116.283 38.5943 114.231 38.3575ZM14.0514 52.8041C8.05172 51.4621 6.07812 45.8571 6.07812 45.8571C6.07812 45.8571 9.23587 50.7516 14.4462 51.9358C20.209 53.1989 27.314 50.5937 27.314 50.5937C27.314 50.5937 21.63 54.462 14.0514 52.8041ZM122.757 10.4114C122.757 10.4114 122.678 8.91147 120.862 8.27992C120.862 8.27992 123.23 8.04309 122.757 10.4114ZM96.6265 17.6742C96.6265 17.6742 96.3897 15.7796 94.4161 14.8322C94.495 14.8322 96.9423 15.227 96.6265 17.6742ZM133.177 36.5417C133.177 36.5417 134.283 38.1996 137.125 37.4101C133.414 39.068 133.177 36.5417 133.177 36.5417ZM59.9966 15.6217C59.9966 15.6217 62.7597 15.4638 62.6807 18.4637C62.6807 18.4637 61.8123 16.3322 59.9966 15.6217ZM152.834 55.6461C155.282 60.5406 160.097 61.0932 164.676 59.988C161.202 62.5142 153.387 61.1722 152.834 55.6461ZM43.3395 8.67464C43.3395 8.67464 42.4711 4.01697 38.524 2.12232C38.524 2.12232 43.8132 3.06964 43.3395 8.67464ZM131.125 6.62211C131.125 6.62211 130.888 4.72746 128.914 4.09591C128.914 4.17485 131.362 4.09591 131.125 6.62211ZM181.491 18.8584C181.491 18.8584 181.649 16.648 179.517 15.5427C179.517 15.5427 182.122 15.8585 181.491 18.8584ZM106.81 2.9907C106.81 2.9907 107.758 2.04338 109.336 2.04338C109.731 2.04338 111.547 1.96443 110.994 4.33274C110.994 4.33274 111.231 3.14859 110.047 2.4381C108.784 1.7276 106.81 2.9907 106.81 2.9907ZM75.3117 16.8058C75.3117 16.8058 75.2328 15.3059 73.6539 14.9112C73.7328 14.9112 75.7064 14.5165 75.3117 16.8058ZM85.0218 37.9627C82.7324 37.8049 81.3904 35.3576 81.3904 35.1997C82.0219 35.7523 82.8903 37.0154 85.1797 37.2522C87.469 37.4891 89.3637 36.6996 91.0215 35.9102C89.6005 37.3312 87.1533 38.1206 85.0218 37.9627Z" fill="#EF8131"/>
<path fill-rule="evenodd" clip-rule="evenodd" d="M60.7861 51.6989C60.7072 50.2779 60.7861 48.9359 60.7861 47.5149C60.7861 47.1202 60.944 46.7255 61.2598 46.4886C61.4966 46.2518 61.8913 46.1729 62.2071 46.2518C62.8386 46.4097 63.0755 46.8834 63.0755 47.436C63.0755 48.6201 62.9965 49.8043 62.9965 50.9884C63.3123 50.9095 63.707 50.8305 64.0228 50.6727C64.4175 50.5937 64.7333 50.5937 65.0491 50.8305C65.2859 50.9884 65.4438 51.3042 65.4438 51.62C65.5227 52.1726 65.207 52.7252 64.6544 52.8831C64.1807 53.041 63.6281 53.1199 63.1544 53.2778C63.3123 54.1462 63.4702 55.0146 63.8649 55.804C64.1017 56.1987 64.0228 56.7513 63.786 57.146C63.5491 57.4618 63.1544 57.6986 62.7597 57.6986C62.365 57.6986 62.0492 57.3829 61.8913 57.0671C61.4177 56.1198 61.1808 55.0935 61.0229 53.9883C60.7861 54.0672 60.5493 54.2251 60.3914 54.3041C60.0756 54.462 59.6809 54.5409 59.2862 54.3041C59.1283 54.2251 58.9704 54.0672 58.8915 53.9093C58.4967 53.3567 58.6546 52.6462 59.2072 52.2515C59.6809 52.0936 60.2335 51.8568 60.7861 51.6989ZM69.391 49.3306C68.2858 49.6464 66.9437 50.2779 66.4701 51.3832C66.1543 52.1726 66.3911 52.962 66.7858 53.5936C66.9437 53.9093 67.1805 54.1462 67.3384 54.383C67.5753 54.6198 67.7332 54.9356 67.891 55.2514V55.3303C67.891 55.4093 67.7332 55.4882 67.6542 55.5672C67.4174 55.6461 67.1805 55.804 66.9437 55.804C66.7069 55.8829 66.4701 55.9619 66.2332 55.9619C66.0753 55.9619 65.9174 56.0408 65.7596 56.0408C65.4438 56.1198 65.128 56.2777 65.0491 56.6724C64.8912 56.9881 64.9701 57.3829 65.128 57.6986C65.128 57.7776 65.207 57.7776 65.207 57.8565C65.4438 58.1723 65.9175 58.3302 66.3122 58.2512C67.4963 58.0144 69.312 57.4618 69.8646 56.1987C70.1804 55.4882 70.0225 54.7777 69.7067 54.1462C69.391 53.4357 68.8384 52.8831 68.4436 52.2515C68.4436 52.1726 68.3647 52.1726 68.4436 52.0936C68.5226 51.9358 68.9173 51.7779 69.0752 51.6989C69.312 51.62 69.6278 51.541 69.8646 51.4621C70.4172 51.3042 70.733 50.7516 70.5751 50.199C70.4962 49.9622 70.4172 49.7253 70.1804 49.5674C70.0225 49.2517 69.7067 49.2517 69.391 49.3306ZM82.1798 51.4621C82.8114 50.6727 83.6798 50.3569 84.785 50.7516C87.1533 51.541 88.1006 54.1462 88.1796 56.4355C88.1796 56.8303 88.0217 57.146 87.7059 57.3829C87.4691 57.5407 87.2322 57.6197 86.9165 57.5408C86.2849 57.4618 85.8902 57.0671 85.8113 56.4355C85.8113 55.3303 85.4955 53.7515 84.5481 53.1989C84.3903 53.1199 84.1534 52.962 83.9166 53.1199C83.4429 53.3567 83.2851 54.6988 83.2061 55.1724C83.1272 55.8829 82.5746 56.3566 81.8641 56.2777C81.3904 56.1987 81.0746 55.8829 80.9957 55.4882C80.9167 55.2514 80.9167 55.0935 80.8378 54.8567C80.7589 54.6198 80.7589 54.3041 80.6799 54.0672C80.601 53.8304 80.3641 52.962 80.1273 52.8831C80.0484 52.8831 79.8905 52.962 79.8115 53.041C79.101 53.5936 79.2589 55.1724 79.2589 56.0408C79.2589 56.4355 79.0221 56.8303 78.6274 57.0671C78.0748 57.3829 77.3643 57.146 77.0485 56.5934C77.0485 56.5145 76.9696 56.4355 76.9696 56.3566C76.417 54.5409 75.8643 52.6462 75.6275 50.7516C75.6275 50.4358 75.7065 50.12 75.9433 49.8832C76.2591 49.6464 76.7327 49.5674 77.1274 49.7253C77.6011 49.8832 77.9169 50.2779 77.9169 50.7516C77.9169 51.0674 77.9958 51.3831 78.0748 51.6989C78.5484 51.1463 79.2589 50.8305 80.0484 50.7516C80.9167 50.2779 81.6272 50.6727 82.1798 51.4621ZM91.6531 54.5409C91.4162 56.1987 91.2584 57.8565 91.4952 59.5143C91.5741 59.8301 91.732 60.1459 92.0478 60.3038C92.4425 60.4617 92.9162 60.3827 93.232 60.1459C93.6267 59.9091 93.8635 59.4354 93.7846 58.9617C93.5477 57.3829 93.7846 55.804 94.0214 54.3041C94.1793 53.3567 94.2582 52.4094 94.3372 51.541C94.3372 51.3831 94.3372 51.1463 94.3372 50.9884C94.3372 50.5937 94.1003 50.199 93.7846 50.0411C93.4688 49.8832 93.0741 49.8043 92.7583 49.9622C92.4425 50.12 92.2057 50.3569 92.1267 50.7516C92.0478 51.1463 91.811 52.0936 91.4162 52.3305C91.3373 52.4094 91.1794 52.4094 91.1005 52.4094C90.311 52.2515 89.5216 51.0674 89.1269 50.4358C88.8901 50.0411 88.4164 49.8043 87.9427 49.9622C87.548 50.0411 87.2322 50.2779 87.0743 50.6727C86.9165 50.9884 86.9954 51.3831 87.1533 51.6989C88.0217 53.041 89.3637 54.7777 91.1005 54.8567C91.1794 54.6988 91.4162 54.6198 91.6531 54.5409ZM103.337 54.9356C103.653 54.7777 103.968 54.8567 104.284 55.0146C104.6 55.2514 104.758 55.7251 104.758 56.1198C104.758 56.5934 104.442 56.9882 103.968 57.146C101.521 58.0934 98.9159 56.7513 98.6001 54.0672C98.5212 53.041 98.758 52.0147 99.3896 51.2253C100.258 50.0411 101.758 49.4885 103.179 49.4096C103.574 49.4096 103.889 49.5674 104.126 49.8043C104.284 50.0411 104.363 50.4358 104.284 50.7516C104.205 51.3042 103.731 51.6989 103.179 51.6989C101.995 51.7779 100.574 52.4884 100.889 53.9093C101.205 55.1724 102.232 55.3303 103.337 54.9356ZM107.758 51.62C108.468 50.8305 109.336 50.3569 110.442 50.5148C110.994 50.5937 111.468 50.7516 111.942 51.1463C113.284 52.2515 113.52 54.6198 113.52 56.2777C113.52 56.6724 113.363 56.9881 113.047 57.225C112.81 57.3829 112.652 57.3829 112.415 57.3829C111.784 57.3829 111.31 56.9092 111.31 56.2777C111.31 55.6461 111.231 55.0146 111.152 54.4619C111.073 54.0672 110.915 53.041 110.442 52.8831C110.363 52.8831 110.205 52.8831 110.126 52.8831C108.942 53.2778 108.389 55.0146 108.073 56.1198C107.758 57.146 106.021 57.3039 105.863 56.1198C105.389 52.8041 105.389 49.4885 105.468 46.1729C105.468 45.7781 105.626 45.4624 106.021 45.2255C106.179 45.1466 106.337 45.0677 106.494 45.0677C107.205 44.9887 107.758 45.4624 107.758 46.1729C107.758 47.9096 107.679 49.7253 107.758 51.62ZM118.178 49.7253C118.336 49.7253 118.415 49.8043 118.573 49.8043C118.968 49.9622 119.283 50.199 119.599 50.5148C120.152 51.1463 120.546 51.9358 120.625 52.7252C120.783 53.9093 120.546 55.2514 119.678 56.1198C119.047 56.6724 118.336 56.9092 117.468 56.9092C117.31 56.9092 117.073 56.9092 116.915 56.8303C116.205 56.6724 115.573 56.2776 115.099 55.804C114.389 55.0935 113.994 54.1462 113.994 53.1199C114.152 51.1463 115.494 49.7253 117.468 49.5674C117.783 49.4885 118.02 49.5674 118.178 49.7253ZM117.547 51.8568C116.836 51.9357 116.205 52.6462 116.362 53.3567C116.441 53.5936 116.52 53.8304 116.678 54.0672C116.915 54.383 117.31 54.6988 117.783 54.6198C118.257 54.5409 118.415 53.7515 118.415 53.3567C118.415 52.6462 118.178 52.0936 117.547 51.8568ZM123.625 50.5148C123.625 52.2515 123.467 54.0672 123.862 55.7251C123.941 56.1198 123.862 56.5145 123.546 56.8303C123.467 56.9092 123.388 56.9881 123.231 56.9881C122.599 57.3039 121.81 57.0671 121.573 56.2777C121.099 54.383 121.257 52.4094 121.257 50.4358C121.257 50.0411 121.494 49.6464 121.81 49.4885C121.967 49.4096 122.125 49.3306 122.283 49.3306C123.073 49.3306 123.625 49.8043 123.625 50.5148ZM122.362 48.6991C121.967 48.6991 121.652 48.5412 121.415 48.2254C121.257 47.9886 121.257 47.8307 121.257 47.5939C121.257 46.9623 121.731 46.4097 122.362 46.4097C122.757 46.4097 123.073 46.5676 123.309 46.8834C123.467 47.0413 123.467 47.2781 123.467 47.5149C123.546 48.2254 123.073 48.6991 122.362 48.6991ZM129.072 54.383C129.388 54.2251 129.783 54.1462 130.099 54.3041C130.335 54.462 130.572 54.6198 130.651 54.9356C130.888 55.4882 130.73 56.0408 130.178 56.3566C129.388 56.8303 128.283 56.9881 127.415 56.8303C126.073 56.6724 124.573 55.8829 124.336 54.4619C124.178 53.8304 124.336 53.1988 124.573 52.6462C125.283 51.2253 127.257 50.3569 128.836 50.199C129.151 50.199 129.467 50.2779 129.704 50.5148C129.941 50.8305 130.02 51.3042 129.862 51.6989C129.704 52.1726 129.309 52.4884 128.836 52.4884C128.678 52.4884 128.441 52.5673 128.283 52.6462C128.046 52.7252 127.809 52.8041 127.572 52.8831C127.257 53.041 126.388 53.4357 126.546 53.9883C126.941 54.6988 128.52 54.7777 129.072 54.383ZM134.756 54.8567C135.151 54.9356 135.625 54.8567 136.019 54.6198C136.414 54.383 136.967 54.462 137.283 54.7777C137.598 55.0146 137.756 55.4882 137.756 55.8829C137.677 56.1987 137.44 56.5145 137.125 56.6724C135.151 57.6197 132.23 57.146 131.283 55.0146C130.967 54.3041 130.888 53.3567 131.046 52.6462C131.283 51.4621 131.914 50.2779 133.177 49.8832C133.651 49.7253 134.125 49.8043 134.519 49.9622C135.467 50.3569 136.098 51.2253 136.256 52.1726C136.414 52.8831 136.256 53.5936 135.783 54.1462C135.546 54.462 135.151 54.6988 134.756 54.8567ZM133.177 52.5673L133.098 52.8831H133.493C133.572 52.8831 133.572 52.8831 133.651 52.8831C133.809 52.8831 134.046 52.8831 134.204 52.8831H134.441V52.6462C134.441 52.5673 134.441 52.4884 134.441 52.4094C134.362 52.1726 134.283 52.0147 134.125 51.8568L133.967 51.6989L133.809 51.7779C133.414 52.0147 133.256 52.3305 133.177 52.5673ZM57.0758 48.3833C56.681 48.3833 56.3653 48.2254 56.1284 47.9096C55.9706 47.7517 55.9706 47.5149 55.9706 47.2781C55.9706 46.6465 56.4442 46.0939 57.0758 46.0939C57.4705 46.0939 57.7863 46.2518 58.0231 46.5676C58.181 46.8044 58.181 46.9623 58.181 47.1991C58.2599 47.9096 57.7863 48.3833 57.0758 48.3833ZM65.9175 49.1727C66.4701 49.4885 67.1806 49.3306 67.4963 48.778C67.7332 48.3833 67.97 47.8307 68.2858 47.436C68.7594 46.9623 68.7594 46.3308 68.2858 45.8571C68.1279 45.6992 67.891 45.5413 67.6542 45.5413C67.2595 45.4624 66.9437 45.6203 66.6279 45.8571C66.0753 46.4097 65.7596 47.0413 65.4438 47.6728C65.207 48.1465 65.3648 48.857 65.9175 49.1727ZM57.9441 50.3569C57.8652 52.0936 57.7863 53.9093 58.181 55.5672C58.2599 55.9619 58.181 56.3566 57.8652 56.6724C57.7863 56.7513 57.7073 56.8303 57.6284 56.8303C56.9968 57.146 56.2074 56.9092 55.9706 56.1198C55.4969 54.2251 55.6548 52.2515 55.6548 50.2779C55.6548 49.8832 55.8916 49.4885 56.2074 49.3306C56.3653 49.2517 56.5232 49.1727 56.681 49.1727C57.3126 49.0938 57.9441 49.5674 57.9441 50.3569Z" fill="#EF8023"/>
</svg>
