<?xml version="1.0" encoding="UTF-8"?>
<svg xmlns="http://www.w3.org/2000/svg" xmlns:xlink="http://www.w3.org/1999/xlink" viewBox="0 0 400 270">
  <defs>
    <style>
      .cls-1, .cls-2, .cls-3, .cls-4, .cls-5, .cls-6, .cls-7, .cls-8, .cls-9, .cls-10, .cls-11, .cls-12, .cls-13, .cls-14, .cls-15, .cls-16, .cls-17, .cls-18, .cls-19, .cls-20 {
        stroke-miterlimit: 10;
      }

      .cls-1, .cls-5 {
        stroke: #ad6f53;
      }

      .cls-1, .cls-5, .cls-15 {
        stroke-width: .64px;
      }

      .cls-1, .cls-21 {
        fill: #ad1701;
      }

      .cls-22 {
        fill: #cc2334;
      }

      .cls-23 {
        fill: #e8f2fc;
      }

      .cls-24 {
        fill: #333828;
      }

      .cls-2 {
        stroke-dasharray: 8.85 8.85;
      }

      .cls-2, .cls-25, .cls-13, .cls-14, .cls-17 {
        fill: none;
      }

      .cls-2, .cls-13, .cls-14, .cls-17 {
        stroke: #e9b12d;
        stroke-width: 2.82px;
      }

      .cls-3 {
        fill: #fff;
        stroke: #c4a89d;
      }

      .cls-3, .cls-6, .cls-9, .cls-10 {
        stroke-width: .16px;
      }

      .cls-4 {
        stroke-width: .08px;
      }

      .cls-4, .cls-6 {
        fill: #ffb188;
        stroke: #a57862;
      }

      .cls-5 {
        fill: #97bdd1;
      }

      .cls-26 {
        fill: #1c1e16;
      }

      .cls-27 {
        fill: #a71c21;
      }

      .cls-7 {
        fill: #ffe0d2;
        stroke: #efc8b9;
        stroke-width: .33px;
      }

      .cls-8 {
        fill: url(#radial-gradient-6);
      }

      .cls-8, .cls-11, .cls-12, .cls-16, .cls-18, .cls-19 {
        stroke: #af694a;
      }

      .cls-8, .cls-11, .cls-12, .cls-16, .cls-18, .cls-19, .cls-20 {
        stroke-width: .32px;
      }

      .cls-28 {
        fill: #f28968;
      }

      .cls-29, .cls-30 {
        mix-blend-mode: soft-light;
      }

      .cls-31 {
        fill: #424d5e;
      }

      .cls-9 {
        stroke: #bc5d2e;
      }

      .cls-9, .cls-32 {
        fill: #e0621b;
      }

      .cls-10 {
        fill: #f9bf4b;
        stroke: #d18e22;
      }

      .cls-33 {
        fill: #050505;
      }

      .cls-11 {
        fill: url(#radial-gradient);
      }

      .cls-34 {
        isolation: isolate;
      }

      .cls-12 {
        fill: url(#radial-gradient-2);
      }

      .cls-35 {
        fill: #ea7025;
      }

      .cls-14 {
        stroke-dasharray: 8.04 8.04;
      }

      .cls-15 {
        fill: #f7a834;
        stroke: #df7e01;
      }

      .cls-16 {
        fill: url(#radial-gradient-4);
      }

      .cls-17 {
        stroke-dasharray: 9.4 9.4;
      }

      .cls-36, .cls-30 {
        fill: #a3becc;
      }

      .cls-18 {
        fill: url(#radial-gradient-5);
      }

      .cls-37 {
        fill: #f79b77;
      }

      .cls-19 {
        fill: url(#radial-gradient-3);
      }

      .cls-20 {
        fill: #9097a0;
        stroke: #707e93;
      }

      .cls-38 {
        fill: #0a1034;
      }
    </style>
    <radialGradient id="radial-gradient" cx="104.68" cy="214.2" fx="104.68" fy="214.2" r="12.45" gradientUnits="userSpaceOnUse">
      <stop offset="0" stop-color="#ffb188"/>
      <stop offset="1" stop-color="#db8a67"/>
    </radialGradient>
    <radialGradient id="radial-gradient-2" cx="76.27" cy="223.3" fx="76.27" fy="223.3" r="37.58" gradientUnits="userSpaceOnUse">
      <stop offset="0" stop-color="#ffc0a4"/>
      <stop offset="1" stop-color="#f9a580"/>
    </radialGradient>
    <radialGradient id="radial-gradient-3" cx="230.49" cy="191.07" fx="230.49" fy="191.07" r="15.1" xlink:href="#radial-gradient"/>
    <radialGradient id="radial-gradient-4" cx="196.04" cy="202.12" fx="196.04" fy="202.12" r="45.58" xlink:href="#radial-gradient-2"/>
    <radialGradient id="radial-gradient-5" cx="370.72" cy="153.54" fx="370.72" fy="153.54" r="17.75" xlink:href="#radial-gradient"/>
    <radialGradient id="radial-gradient-6" cx="330.22" cy="166.52" fx="330.22" fy="166.52" r="53.58" xlink:href="#radial-gradient-2"/>
  </defs>
  <g class="cls-34">
    <g id="Layer_1" data-name="Layer 1">
      <g>
        <path class="cls-23" d="M93.96,66.49c-.05-.14-.12-.28-.19-.41-.59-1.09-1.68-1.85-2.87-2.2-.52-.15-1.07-.23-1.61-.25-.8-.03-1.47-.65-1.54-1.45-.05-.69-.36-1.4-.84-1.88-.65-.65-1.67-.84-2.53-.57-.52.16-1.09-.12-1.28-.64-.83-2.15-2.38-3.95-4.37-5.16-1.55-.95-3.38-1.49-5.19-1.31-1.81.18-3.57,1.13-4.54,2.67-.54.86-.81,1.89-.79,2.91.01.54-.59.87-1.04.58-.26-.17-.53-.31-.8-.41-.78-.28-1.75-.19-2.29.44-.24.28-.36.62-.4.99-.07.58-.65.93-1.19.71-.53-.22-1.07-.41-1.52-.48-.86-.14-1.81,0-2.48.55-.37.31-.62.76-.69,1.23-.08.49-.55.82-1.04.71-2.47-.58-5.22.17-7.01,2.01-.7.72-1.26,1.61-1.45,2.6,0,.04-.01.08-.02.12-.18,1.31.88,2.46,2.2,2.46h41.27c1.67,0,2.83-1.67,2.23-3.23Z"/>
        <path class="cls-23" d="M154.25,50.38c-.07-.18-.15-.35-.24-.52-.74-1.37-2.12-2.33-3.61-2.77-.66-.19-1.34-.29-2.03-.31-1.01-.03-1.86-.82-1.94-1.83-.07-.87-.46-1.76-1.06-2.36-.81-.82-2.1-1.06-3.19-.72-.66.21-1.37-.16-1.62-.8-1.05-2.71-3.01-4.98-5.52-6.51-1.95-1.19-4.27-1.88-6.55-1.65-2.28.22-4.5,1.42-5.72,3.36-.68,1.09-1.03,2.38-1,3.67.01.68-.74,1.1-1.32.74-.33-.21-.67-.39-1.01-.51-.98-.36-2.21-.24-2.88.55-.3.35-.46.78-.51,1.24-.09.73-.82,1.18-1.5.9-.66-.28-1.34-.52-1.92-.61-1.09-.18-2.28,0-3.13.7-.46.39-.78.96-.88,1.55-.1.62-.7,1.04-1.31.89-3.12-.73-6.59.22-8.85,2.54-.88.91-1.59,2.03-1.83,3.28,0,.05-.02.1-.03.16-.23,1.65,1.1,3.1,2.77,3.1h52.05c2.1,0,3.56-2.11,2.81-4.07Z"/>
        <path class="cls-11" d="M91.73,222.06l-2.63-1.24c5.41-3.67,24.54-14.13,24.54-14.13,5.32-2.42,7.09,1.88,6.47,3.67-.62,1.79-13.62,8.95-13.62,8.95l-2.63,3.1-12.14-.36Z"/>
        <path class="cls-37" d="M89.11,220.83l-6.75-3.18c6.05-4.27,20.64-11.2,20.64-11.2,0,0,3.63-1.76,5.04-2.31,2.49-.97,5.62,2.55,5.62,2.55,0,0-19.13,10.46-24.54,14.13Z"/>
        <path class="cls-28" d="M82.36,217.65l-4.46-2.1c6.01-4.05,17.6-10.02,20.62-10.84,3.02-.82,4.48,1.74,4.48,1.74,0,0-14.59,6.93-20.64,11.2Z"/>
        <path class="cls-15" d="M48.12,318.22l-36.89-7.95c1.54-5.35,16.22-62.97,18.22-67.17l26.05,5.35c.05,4.64-7.38,69.77-7.38,69.77Z"/>
        <rect class="cls-38" x="65.92" y="184.9" width="47.64" height="31.33"/>
        <rect class="cls-7" x="65.92" y="185.66" width="47.64" height="31.66"/>
        <g>
          <g>
            <rect class="cls-5" x="73.03" y="192.41" width="12.71" height="23.82"/>
            <g class="cls-29">
              <polygon class="cls-36" points="85.73 193.09 85.73 194.73 73.03 197.73 73.03 196.31 85.73 193.09"/>
              <polygon class="cls-36" points="85.73 198.28 85.73 201.31 73.03 204.32 73.03 201.5 85.73 198.28"/>
              <polygon class="cls-36" points="85.73 206.81 85.73 209.24 73.03 212.25 73.03 210.19 85.73 206.81"/>
            </g>
          </g>
          <ellipse class="cls-1" cx="75.83" cy="205.78" rx="1.08" ry=".97"/>
        </g>
        <g>
          <rect class="cls-5" x="88.99" y="192.41" width="21.2" height="14.95"/>
          <g>
            <polygon class="cls-30" points="93.95 192.41 88.99 193.58 88.99 192.41 93.95 192.41"/>
            <polygon class="cls-30" points="110.19 199.88 110.19 203.08 92.09 207.36 88.99 207.36 88.99 205.52 110.19 199.88"/>
            <polygon class="cls-30" points="110.19 192.41 110.19 195.15 88.99 200.17 88.99 197.05 107.31 192.41 110.19 192.41"/>
          </g>
        </g>
        <g>
          <polygon class="cls-32" points="80.64 166.75 76.01 185 82.87 185 85.19 166.75 80.64 166.75"/>
          <polygon class="cls-32" points="71.55 166.75 62.28 185 69.15 185 76.1 166.75 71.55 166.75"/>
          <polygon class="cls-22" points="85.19 166.75 82.87 185 89.74 185 89.74 166.75 85.19 166.75"/>
          <polygon class="cls-22" points="76.1 166.75 69.15 185 76.01 185 80.64 166.75 76.1 166.75"/>
          <polygon class="cls-32" points="98.83 166.75 103.46 185 110.32 185 103.37 166.75 98.83 166.75"/>
          <polygon class="cls-22" points="107.92 166.75 103.37 166.75 110.32 185 117.19 185 107.92 166.75"/>
          <polygon class="cls-32" points="89.74 166.75 89.74 185 96.6 185 94.28 166.75 89.74 166.75"/>
          <polygon class="cls-22" points="94.28 166.75 96.6 185 103.46 185 98.83 166.75 94.28 166.75"/>
        </g>
        <g>
          <path class="cls-35" d="M69.15,184.9c0,1.71-1.54,3.1-3.43,3.1s-3.43-1.39-3.43-3.1h6.86Z"/>
          <path class="cls-27" d="M76.01,184.9c0,1.71-1.54,3.1-3.43,3.1s-3.43-1.39-3.43-3.1h6.86Z"/>
          <path class="cls-35" d="M82.87,184.9c0,1.71-1.54,3.1-3.43,3.1s-3.43-1.39-3.43-3.1h6.86Z"/>
          <path class="cls-27" d="M89.73,184.9c0,1.71-1.54,3.1-3.43,3.1s-3.43-1.39-3.43-3.1h6.86Z"/>
          <path class="cls-35" d="M96.6,184.9c0,1.71-1.54,3.1-3.43,3.1s-3.43-1.39-3.43-3.1h6.86Z"/>
          <path class="cls-27" d="M103.46,184.9c0,1.71-1.54,3.1-3.43,3.1s-3.43-1.39-3.43-3.1h6.86Z"/>
          <path class="cls-35" d="M110.32,184.9c0,1.71-1.54,3.1-3.43,3.1s-3.43-1.39-3.43-3.1h6.86Z"/>
          <path class="cls-27" d="M117.19,184.9c0,1.71-1.54,3.1-3.43,3.1s-3.43-1.39-3.43-3.1h6.86Z"/>
        </g>
        <path class="cls-12" d="M115.35,222.61c-8.83,3.26-24.57,10.25-30.39,9.55-13.06-1.58-23.48,3.07-26.93,6.14-1.64,1.46-2.3,5.9-2.53,10.16l-26.05-5.35c3.1-16,10.28-25.91,18.64-29.92,9.29-4.46,22.45-13.4,29.68-14.94,2.57-.55,7.4,1.73,2.98,5.28-4.43,3.56-11.44,6.68-7.75,9.88,3.69,3.19,29.66,4.66,34.74,3.35,5.08-1.31,11.74-5.42,14.04-4.27,2.3,1.15,2.41,6.88-6.42,10.14Z"/>
        <path class="cls-19" d="M214.8,200.61l-3.19-1.5c6.56-4.46,29.77-17.14,29.77-17.14,6.46-2.93,8.6,2.28,7.85,4.45-.75,2.17-16.52,10.86-16.52,10.86l-3.19,3.76-14.73-.43Z"/>
        <path class="cls-37" d="M211.61,199.11l-8.19-3.85c7.34-5.18,25.03-13.58,25.03-13.58,0,0,4.4-2.13,6.11-2.8,3.02-1.17,6.81,3.09,6.81,3.09,0,0-23.21,12.68-29.77,17.14Z"/>
        <path class="cls-28" d="M203.42,195.26l-5.41-2.54c7.29-4.91,21.34-12.15,25-13.15,3.66-.99,5.43,2.11,5.43,2.11,0,0-17.69,8.4-25.03,13.58Z"/>
        <path class="cls-15" d="M161.9,317.24l-44.75-9.64c1.86-6.48,19.68-76.38,22.1-81.47l31.6,6.49c.06,5.62-8.95,84.62-8.95,84.62Z"/>
        <rect class="cls-38" x="183.49" y="155.53" width="57.77" height="38"/>
        <rect class="cls-7" x="183.49" y="155.99" width="57.77" height="38.4"/>
        <g>
          <g>
            <rect class="cls-5" x="192.11" y="164.65" width="15.41" height="28.89"/>
            <g class="cls-29">
              <polygon class="cls-36" points="207.52 165.47 207.52 167.46 192.11 171.1 192.11 169.38 207.52 165.47"/>
              <polygon class="cls-36" points="207.52 171.77 207.52 175.45 192.11 179.09 192.11 175.68 207.52 171.77"/>
              <polygon class="cls-36" points="207.52 182.11 207.52 185.06 192.11 188.7 192.11 186.21 207.52 182.11"/>
            </g>
          </g>
          <ellipse class="cls-1" cx="195.5" cy="180.86" rx="1.31" ry="1.18"/>
        </g>
        <g>
          <rect class="cls-5" x="211.8" y="164.65" width="25.72" height="18.13"/>
          <g>
            <polygon class="cls-30" points="217.82 164.65 211.8 166.07 211.8 164.65 217.82 164.65"/>
            <polygon class="cls-30" points="237.52 173.71 237.52 177.59 215.57 182.78 211.8 182.78 211.8 180.55 237.52 173.71"/>
            <polygon class="cls-30" points="237.52 164.65 237.52 167.98 211.8 174.06 211.8 170.28 234.03 164.65 237.52 164.65"/>
          </g>
        </g>
        <g>
          <polygon class="cls-32" points="201.35 133.53 195.73 155.66 204.05 155.66 206.86 133.53 201.35 133.53"/>
          <polygon class="cls-32" points="190.32 133.53 179.08 155.66 187.4 155.66 195.83 133.53 190.32 133.53"/>
          <polygon class="cls-22" points="206.86 133.53 204.05 155.66 212.37 155.66 212.37 133.53 206.86 133.53"/>
          <polygon class="cls-22" points="195.83 133.53 187.4 155.66 195.73 155.66 201.35 133.53 195.83 133.53"/>
          <polygon class="cls-32" points="223.4 133.53 229.02 155.66 237.34 155.66 228.91 133.53 223.4 133.53"/>
          <polygon class="cls-22" points="234.43 133.53 228.91 133.53 237.34 155.66 245.67 155.66 234.43 133.53"/>
          <polygon class="cls-32" points="212.37 133.53 212.37 155.66 220.7 155.66 217.89 133.53 212.37 133.53"/>
          <polygon class="cls-22" points="217.89 133.53 220.7 155.66 229.02 155.66 223.4 133.53 217.89 133.53"/>
        </g>
        <g>
          <path class="cls-35" d="M187.4,155.53c0,2.07-1.86,3.76-4.16,3.76s-4.16-1.68-4.16-3.76h8.32Z"/>
          <path class="cls-27" d="M195.73,155.53c0,2.07-1.86,3.76-4.16,3.76s-4.16-1.68-4.16-3.76h8.32Z"/>
          <path class="cls-35" d="M204.05,155.53c0,2.07-1.86,3.76-4.16,3.76s-4.16-1.68-4.16-3.76h8.32Z"/>
          <path class="cls-27" d="M212.37,155.53c0,2.07-1.86,3.76-4.16,3.76s-4.16-1.68-4.16-3.76h8.32Z"/>
          <path class="cls-35" d="M220.7,155.53c0,2.07-1.86,3.76-4.16,3.76s-4.16-1.68-4.16-3.76h8.32Z"/>
          <path class="cls-27" d="M229.02,155.53c0,2.07-1.86,3.76-4.16,3.76s-4.16-1.68-4.16-3.76h8.32Z"/>
          <path class="cls-35" d="M237.34,155.53c0,2.07-1.86,3.76-4.16,3.76s-4.16-1.68-4.16-3.76h8.32Z"/>
          <path class="cls-27" d="M245.67,155.53c0,2.07-1.86,3.76-4.16,3.76s-4.16-1.68-4.16-3.76h8.32Z"/>
        </g>
        <path class="cls-16" d="M243.44,201.28c-10.7,3.95-29.8,12.43-36.86,11.58-15.84-1.91-28.48,3.72-32.66,7.44-1.99,1.77-2.79,7.16-3.07,12.32l-31.6-6.49c3.76-19.4,12.46-31.42,22.61-36.29,11.27-5.41,27.22-16.25,35.99-18.13,3.12-.67,8.98,2.09,3.61,6.4-5.37,4.31-13.87,8.1-9.39,11.98,4.48,3.87,35.97,5.66,42.13,4.07,6.16-1.59,14.24-6.57,17.02-5.18,2.78,1.39,2.92,8.35-7.78,12.3Z"/>
        <path class="cls-18" d="M352.27,164.75l-3.75-1.76c7.72-5.24,34.99-20.14,34.99-20.14,7.59-3.45,10.11,2.68,9.23,5.23-.88,2.55-19.41,12.77-19.41,12.77l-3.75,4.42-17.31-.51Z"/>
        <path class="cls-37" d="M348.53,162.99l-9.63-4.53c8.62-6.09,29.42-15.97,29.42-15.97,0,0,5.17-2.5,7.19-3.29,3.55-1.38,8.01,3.64,8.01,3.64,0,0-27.28,14.91-34.99,20.14Z"/>
        <path class="cls-28" d="M338.9,158.46l-6.35-2.99c8.57-5.77,25.09-14.28,29.39-15.45,4.3-1.17,6.38,2.48,6.38,2.48,0,0-20.8,9.87-29.42,15.97Z"/>
        <path class="cls-15" d="M290.1,301.84l-52.6-11.33c2.19-7.62,23.13-89.78,25.98-95.77l37.14,7.63c.07,6.61-10.52,99.47-10.52,99.47Z"/>
        <rect class="cls-38" x="315.47" y="111.76" width="67.91" height="44.67"/>
        <rect class="cls-7" x="315.47" y="112.75" width="67.91" height="45.14"/>
        <g>
          <g>
            <rect class="cls-5" x="325.6" y="122.47" width="18.12" height="33.96"/>
            <g class="cls-29">
              <polygon class="cls-36" points="343.72 123.44 343.72 125.78 325.6 130.06 325.6 128.03 343.72 123.44"/>
              <polygon class="cls-36" points="343.72 130.84 343.72 135.17 325.6 139.45 325.6 135.44 343.72 130.84"/>
              <polygon class="cls-36" points="343.72 143 343.72 146.47 325.6 150.75 325.6 147.82 343.72 143"/>
            </g>
          </g>
          <ellipse class="cls-1" cx="329.59" cy="141.53" rx="1.53" ry="1.38"/>
        </g>
        <g>
          <rect class="cls-5" x="349.03" y="122.47" width="30.23" height="21.31"/>
          <g>
            <polygon class="cls-30" points="356.11 122.47 349.03 124.14 349.03 122.47 356.11 122.47"/>
            <polygon class="cls-30" points="379.26 133.13 379.26 137.69 353.47 143.79 349.03 143.79 349.03 141.17 379.26 133.13"/>
            <polygon class="cls-30" points="379.26 122.47 379.26 126.39 349.03 133.53 349.03 129.09 375.16 122.47 379.26 122.47"/>
          </g>
        </g>
        <g>
          <polygon class="cls-32" points="336.46 85.89 329.86 111.9 339.64 111.9 342.94 85.89 336.46 85.89"/>
          <polygon class="cls-32" points="323.5 85.89 310.29 111.9 320.07 111.9 329.98 85.89 323.5 85.89"/>
          <polygon class="cls-22" points="342.94 85.89 339.64 111.9 349.42 111.9 349.42 85.89 342.94 85.89"/>
          <polygon class="cls-22" points="329.98 85.89 320.07 111.9 329.86 111.9 336.46 85.89 329.98 85.89"/>
          <polygon class="cls-32" points="362.39 85.89 368.99 111.9 378.78 111.9 368.87 85.89 362.39 85.89"/>
          <polygon class="cls-22" points="375.35 85.89 368.87 85.89 378.78 111.9 388.56 111.9 375.35 85.89"/>
          <polygon class="cls-32" points="349.42 85.89 349.42 111.9 359.21 111.9 355.9 85.89 349.42 85.89"/>
          <polygon class="cls-22" points="355.9 85.89 359.21 111.9 368.99 111.9 362.39 85.89 355.9 85.89"/>
        </g>
        <g>
          <path class="cls-35" d="M320.07,111.76c0,2.44-2.19,4.41-4.89,4.41s-4.89-1.98-4.89-4.41h9.78Z"/>
          <path class="cls-21" d="M329.86,111.76c0,2.44-2.19,4.41-4.89,4.41s-4.89-1.98-4.89-4.41h9.78Z"/>
          <path class="cls-35" d="M339.64,111.76c0,2.44-2.19,4.41-4.89,4.41s-4.89-1.98-4.89-4.41h9.78Z"/>
          <path class="cls-21" d="M349.42,111.76c0,2.44-2.19,4.41-4.89,4.41s-4.89-1.98-4.89-4.41h9.78Z"/>
          <path class="cls-35" d="M359.21,111.76c0,2.44-2.19,4.41-4.89,4.41s-4.89-1.98-4.89-4.41h9.78Z"/>
          <path class="cls-21" d="M368.99,111.76c0,2.44-2.19,4.41-4.89,4.41s-4.89-1.98-4.89-4.41h9.78Z"/>
          <path class="cls-35" d="M378.78,111.76c0,2.44-2.19,4.41-4.89,4.41s-4.89-1.98-4.89-4.41h9.78Z"/>
          <path class="cls-21" d="M388.56,111.76c0,2.44-2.19,4.41-4.89,4.41s-4.89-1.98-4.89-4.41h9.78Z"/>
        </g>
        <path class="cls-8" d="M385.95,165.53c-12.58,4.65-35.03,14.62-43.33,13.61-18.62-2.25-33.47,4.37-38.39,8.75-2.34,2.08-3.28,8.42-3.61,14.48l-37.14-7.63c4.42-22.81,14.65-36.94,26.58-42.66,13.24-6.36,32-19.1,42.31-21.31,3.67-.78,10.56,2.46,4.24,7.53-6.31,5.07-16.31,9.53-11.04,14.08,5.26,4.55,42.28,6.65,49.52,4.78,7.24-1.87,16.74-7.73,20.01-6.09,3.27,1.63,3.43,9.81-9.15,14.46Z"/>
        <g>
          <g>
            <path class="cls-33" d="M272.84,32.96s-.76-.75-.3-1.3c.42-.5,1.02-.02,1.02-.02-.12-2.01,3.45-3.18,3.45-3.18,1.1-1.78-.9-3.43-.9-3.43,0,0-5.83.61-6.7,4.67-.59,2.76,1.02,4.28,2.11,4.97.77-.48,1.32-1.7,1.32-1.7Z"/>
            <path class="cls-4" d="M277.03,34.53l.68,1.17h0c-.02.08-.08.37-.19.73h0s0,0,0,0c-.2.69-.53,1.63-.88,1.76-.1.04-.27.05-.5.04-1.1-.05-3.41-.59-3.45-.91-.04-.39-.26-2.2-.26-2.2,0,0-.4-.14-.92-.47.77-.48,1.32-1.7,1.32-1.7,0,0-.76-.75-.3-1.3.42-.5,1.02-.02,1.02-.02-.12-2.01,3.45-3.18,3.45-3.18,0,0,2.38,3.79.02,6.07Z"/>
          </g>
          <g>
            <path class="cls-33" d="M323.34,80.31c-.02.11,1.07,1.85,1.94,1.87,1.01.03,4.01-4.29,4.13-5.12.06-.4-.61-.91-1.17-.79-.43.09-1.45.16-2.77,1.29,0,0-1.93,1.83-2.13,2.75Z"/>
            <path class="cls-33" d="M250.76,77.13c-.05-.11-1.99-.78-2.68-.26-.8.6-.48,5.85-.06,6.58.2.35,1.05.33,1.41-.11.28-.34,1.04-1.02,1.37-2.73,0,0,.37-2.64-.04-3.48Z"/>
            <path class="cls-20" d="M325.47,77.56c.05.3-1.71,2.66-2.14,2.62-.43-.04-20.23-14.14-22.24-14.42-2.01-.27-14.45-1.4-15.05-.89-.61.52-3.65,17.7-8.84,18.94-5.19,1.24-26.49-2.84-26.49-2.84,0,0-.14-3.91.01-3.89.15,0,21.36.98,23.07-.11,1.36-.87,1.85-8.33,1.99-11.38.04-.8.05-1.29.05-1.29l6.42-6.19s.33-.15.79-.31c.75-.27,1.92-.66,3.01-1.03,1.42-.48,2.7-.9,2.7-.9l.33,1.42s.02,0,.06,0c.98.06,13.02.9,15.63,2.74,2.72,1.92,20.64,17.21,20.69,17.51Z"/>
          </g>
          <g>
            <path d="M248.94,64.18l-.44,1.13,4.14,1.62.44-1.13c.19-.48-.05-1.02-.53-1.2l-2.41-.94c-.48-.19-1.02.05-1.2.53ZM252.3,66.18l-3.05-1.19.23-.59c.07-.18.27-.26.44-.19l2.41.94c.18.07.26.27.19.44l-.23.59Z"/>
            <rect class="cls-26" x="242.33" y="69.74" width="12.18" height="3.78" transform="translate(453.62 228.91) rotate(-158.62)"/>
            <polygon class="cls-24" points="243.42 67.64 248.48 71.52 254.78 72.09 256.52 67.66 245.15 63.21 243.42 67.64"/>
            <rect class="cls-22" x="248.03" y="70.39" width=".88" height="2.25" rx=".29" ry=".29" transform="translate(91.28 276.81) rotate(-68.62)"/>
          </g>
          <g>
            <path class="cls-10" d="M301.86,29.75s-5.33,12.99-9.42,13.42c-4.1.43-5.57.03-5.57.03,0,0,2.83,13.17,2.37,13.96-.03.04-.05.09-.08.14-.5.84-1.49,2.45-2.11,2.1-.2-.11-.57-1.18-.99-2.63-.97-3.3-2.24-8.61-2.51-9.33-.39-1.04-6.04-10.68-6.02-11.02h0s0,0,0,0l.19-.72h0s6.63.24,7.71.45c2.32.45,4.92,2.16,6.04,1.95,1.41-.26,8.78-9.2,8.78-9.2l1.63.84Z"/>
            <path class="cls-10" d="M283.32,61.23c-.92,1.6-6.02,3.9-7.53,4.37-.16.05-.27.08-.34.08-.76.07-1.11-3.13-.96-5.06.15-1.92-4.15-12.49-4.68-12.72-.53-.23-6.18,1.91-7.24,2.6-1.06.69-8.58,11.8-9.18,11.83-.6.03-1.57-.59-1.99-1.02-.43-.43,6.31-13.2,7.17-14.27.86-1.07,5.89-5.4,7.15-6.36s6.99-3.37,6.99-3.37c.42-.15,3.38.81,3.38.81.02.03.05.06.07.09,1.78,2.5,5.67,13.74,6.91,19.58.37,1.75.5,3.02.27,3.42Z"/>
            <path class="cls-3" d="M286.05,56.78c-1.09.36-2.26.76-3.01,1.03-1.24-5.84-5.12-17.08-6.91-19.58.23.01.4,0,.5-.04.34-.13.68-1.07.88-1.76-.02.34,5.63,9.98,6.02,11.02.27.72,1.54,6.03,2.51,9.33Z"/>
            <path class="cls-6" d="M300.23,28.91c-.01-.06-.34-2.07.22-2.24.56-.18.63.77.63.77,0,0,.33-1.59,1.05-1.48.72.11,1.62,1.19,1.36,1.78-.26.6-1.63,2.02-1.63,2.02l-1.63-.84Z"/>
            <path class="cls-6" d="M253.38,62.34s.84,1.87.48,2.47c-.36.6-1.19-.02-1.21-.66,0,0-.21,1.4-1.06,1.39-.85-.01-2.21-1.08-1.75-2.16s1.54-2.05,1.54-2.05c0,0,1.61.65,1.99,1.02Z"/>
            <path class="cls-9" d="M281.42,49.17c-.74,3.23-3.54,4.99-6.32,6.24-1.02.48-2.01.9-2.78,1.38-.47.29-.78.52-1.02.87l-.05.07s-.02.05-.03.07c-.05.08-.05.17-.08.25,0,0-2.36,2.84-2.98,2.22-.62-.62-1.01-3.75-1.01-3.75.63-1.5,2.06-2.57,3.47-3.14,3.01-1.32,7.27-1.43,8.68-4.81.84-2.4-.19-5.2-1.25-7.41-.47-.96-1.08-2.02-1.68-2.9,0,0,.19.03.31-.07.09-.08.18-.18.18-.17,2.54,2.84,5.4,7.13,4.57,11.15Z"/>
          </g>
          <g>
            <path class="cls-32" d="M284.38,7.53c-.83.5-1.43,1.32-1.89,2.21s-.8,1.85-1.24,2.76c-1.56,3.23-4.62,5.62-7.97,6.67-1.62-2.43-3.26-5.01-4.87-7.44,3.2-.07,6.05-1.87,7.55-4.63.56-1.04.95-2.2,1.49-3.25s1.29-2.03,2.36-2.46c1.76,1.85,3.28,3.93,4.57,6.14Z"/>
            <path class="cls-31" d="M278.63.08h0c.15-.12.38-.1.5.05l30.13,36.17c.12.15.11.36-.03.49-.15.14-.38.12-.51-.04L278.58.59c-.13-.15-.11-.38.05-.51Z"/>
          </g>
        </g>
        <g>
          <path class="cls-25" d="M5.58,202.52c-3.96-25.59,26.86-71.4,79.61-46.09,0,0,4.35-38.49,44.69-52.84,40.97-14.57,82.5,16.5,82.5,16.5,0,0,7.32-31.36,28.89-37.91"/>
          <g>
            <path class="cls-13" d="M5.58,202.52c-.23-1.5-.34-3.07-.34-4.69"/>
            <path class="cls-17" d="M6.42,188.53c5.62-23.17,31-49.4,70.08-35.71"/>
            <path class="cls-13" d="M80.9,154.5c1.41.59,2.85,1.23,4.29,1.93,0,0,.2-1.74.89-4.61"/>
            <path class="cls-2" d="M88.74,143.38c4.84-12.53,16-30.85,41.14-39.79,30.33-10.79,60.95,3.43,74.82,11.55"/>
            <path class="cls-13" d="M208.48,117.46c2.51,1.6,3.89,2.64,3.89,2.64,0,0,.41-1.75,1.32-4.51"/>
            <path class="cls-14" d="M216.58,108.08c3.28-7.43,8.68-16.57,16.84-22.11"/>
            <path class="cls-13" d="M236.9,83.93c1.39-.69,2.84-1.28,4.37-1.74"/>
          </g>
        </g>
      </g>
    </g>
  </g>
</svg>